# This file was created with Minddesk Qubicle 3.0
# Get Qubicle at www.getqubicle.com

mtllib Plattform.mtl

vn 0.0 0.0 1.0
vn 0.0 0.0 -1.0
vn -1.0 0.0 0.0
vn 1.0 0.0 0.0
vn 0.0 1.0 0.0
vn 0.0 -1.0 0.0

v 1.25000 5.00000 -1.25000
v 1.25000 4.95000 -1.25000
v -1.25000 4.95000 -1.25000
v -1.25000 5.00000 -1.25000
v -1.25000 5.00000 1.25000
v -1.25000 4.95000 1.25000
v 1.25000 4.95000 1.25000
v 1.25000 5.00000 1.25000
v 1.20000 4.95000 -1.20000
v 1.20000 0.00000 -1.20000
v -1.20000 0.00000 -1.20000
v -1.20000 4.95000 -1.20000
v -1.20000 4.95000 1.20000
v -1.20000 0.00000 1.20000
v 1.20000 0.00000 1.20000
v 1.20000 4.95000 1.20000

vt 0.78516 0.19922
vt 0.78516 0.00391
vt 0.98047 0.00391
vt 0.98047 0.19922
vt 0.00391 0.59375
vt 0.00391 0.39844
vt 0.19922 0.39844
vt 0.19922 0.59375
vt 0.78516 0.21094
vt 0.78516 0.20703
vt 0.98047 0.20703
vt 0.98047 0.21094
vt 0.78516 0.22266
vt 0.78516 0.21875
vt 0.98047 0.21875
vt 0.98047 0.22266
vt 0.78516 0.23438
vt 0.78516 0.23047
vt 0.98047 0.23047
vt 0.98047 0.23438
vt 0.78516 0.24609
vt 0.78516 0.24219
vt 0.98047 0.24219
vt 0.98047 0.24609
vt 0.00391 0.39063
vt 0.00391 0.00391
vt 0.19141 0.00391
vt 0.19141 0.39063
vt 0.19922 0.39063
vt 0.19922 0.00391
vt 0.38672 0.00391
vt 0.38672 0.39063
vt 0.39453 0.39063
vt 0.39453 0.00391
vt 0.58203 0.00391
vt 0.58203 0.39063
vt 0.58984 0.39063
vt 0.58984 0.00391
vt 0.77734 0.00391
vt 0.77734 0.39063
vt 0.20703 0.58594
vt 0.20703 0.39844
vt 0.39453 0.39844
vt 0.39453 0.58594
vt 0.40234 0.58594
vt 0.40234 0.39844
vt 0.58984 0.39844
vt 0.58984 0.58594

g Ground
usemtl Plattform_Material
f 2/14/2 4/16/2 1/13/2
f 2/14/2 3/15/2 4/16/2
f 6/10/1 8/12/1 5/9/1
f 6/10/1 7/11/1 8/12/1
f 3/22/3 5/24/3 4/21/3
f 3/22/3 6/23/3 5/24/3
f 7/18/4 1/20/4 8/17/4
f 7/18/4 2/19/4 1/20/4
f 4/1/5 5/2/5 1/4/5
f 5/2/5 8/3/5 1/4/5
f 6/5/6 3/6/6 7/8/6
f 3/6/6 2/7/6 7/8/6
g Bar
usemtl Plattform_Material
f 10/34/2 12/36/2 9/33/2
f 10/34/2 11/35/2 12/36/2
f 14/30/1 16/32/1 13/29/1
f 14/30/1 15/31/1 16/32/1
f 11/26/3 13/28/3 12/25/3
f 11/26/3 14/27/3 13/28/3
f 15/38/4 9/40/4 16/37/4
f 15/38/4 10/39/4 9/40/4
f 12/45/5 13/46/5 9/48/5
f 13/46/5 16/47/5 9/48/5
f 14/41/6 11/42/6 15/44/6
f 11/42/6 10/43/6 15/44/6
