# This file was created with Minddesk Qubicle 3.0
# Get Qubicle at www.getqubicle.com

mtllib Button.mtl

vn 0.0 0.0 1.0
vn 0.0 0.0 -1.0
vn -1.0 0.0 0.0
vn 1.0 0.0 0.0
vn 0.0 1.0 0.0
vn 0.0 -1.0 0.0

v 0.20000 0.05000 -0.30000
v 0.20000 0.00000 -0.30000
v -0.20000 0.00000 -0.30000
v -0.20000 0.05000 -0.30000
v 0.15000 0.10000 -0.25000
v 0.15000 0.05000 -0.25000
v -0.15000 0.05000 -0.25000
v -0.15000 0.10000 -0.25000
v 0.15000 0.10000 0.20000
v 0.15000 0.05000 0.20000
v -0.15000 0.05000 0.20000
v -0.15000 0.10000 0.20000
v -0.20000 0.05000 -0.25000
v -0.20000 0.00000 -0.25000
v -0.25000 0.00000 -0.25000
v -0.25000 0.05000 -0.25000
v 0.25000 0.05000 -0.25000
v 0.25000 0.00000 -0.25000
v 0.20000 0.00000 -0.25000
v 0.20000 0.05000 -0.25000
v -0.25000 0.05000 -0.20000
v -0.25000 0.00000 -0.20000
v -0.30000 0.00000 -0.20000
v -0.30000 0.05000 -0.20000
v -0.15000 0.10000 -0.20000
v -0.15000 0.05000 -0.20000
v -0.20000 0.05000 -0.20000
v -0.20000 0.10000 -0.20000
v 0.20000 0.10000 -0.20000
v 0.20000 0.05000 -0.20000
v 0.15000 0.05000 -0.20000
v 0.15000 0.10000 -0.20000
v 0.30000 0.05000 -0.20000
v 0.30000 0.00000 -0.20000
v 0.25000 0.00000 -0.20000
v 0.25000 0.05000 -0.20000
v -0.20000 0.10000 -0.15000
v -0.20000 0.05000 -0.15000
v -0.25000 0.05000 -0.15000
v -0.25000 0.10000 -0.15000
v 0.25000 0.10000 -0.15000
v 0.25000 0.05000 -0.15000
v 0.20000 0.05000 -0.15000
v 0.20000 0.10000 -0.15000
v -0.15000 0.10000 0.15000
v -0.15000 0.05000 0.15000
v -0.20000 0.05000 0.15000
v -0.20000 0.10000 0.15000
v 0.20000 0.10000 0.15000
v 0.20000 0.05000 0.15000
v 0.15000 0.05000 0.15000
v 0.15000 0.10000 0.15000
v -0.15000 0.10000 0.25000
v -0.15000 0.05000 0.25000
v 0.15000 0.05000 0.25000
v 0.15000 0.10000 0.25000
v -0.20000 0.05000 0.30000
v -0.20000 0.00000 0.30000
v 0.20000 0.00000 0.30000
v 0.20000 0.05000 0.30000
v -0.15000 0.05000 -0.15000
v -0.15000 0.10000 -0.15000
v 0.15000 0.10000 -0.15000
v 0.15000 0.05000 -0.15000
v -0.25000 0.10000 0.15000
v -0.25000 0.05000 0.15000
v 0.25000 0.05000 0.15000
v 0.25000 0.10000 0.15000
v -0.30000 0.05000 0.20000
v -0.30000 0.00000 0.20000
v -0.25000 0.00000 0.20000
v -0.25000 0.05000 0.20000
v -0.20000 0.10000 0.20000
v -0.20000 0.05000 0.20000
v 0.20000 0.05000 0.20000
v 0.20000 0.10000 0.20000
v 0.25000 0.05000 0.20000
v 0.25000 0.00000 0.20000
v 0.30000 0.00000 0.20000
v 0.30000 0.05000 0.20000
v -0.25000 0.05000 0.25000
v -0.25000 0.00000 0.25000
v -0.20000 0.00000 0.25000
v -0.20000 0.05000 0.25000
v 0.20000 0.05000 0.25000
v 0.20000 0.00000 0.25000
v 0.25000 0.00000 0.25000
v 0.25000 0.05000 0.25000
v -0.30000 0.05000 -0.15000
v -0.30000 0.05000 0.15000
v 0.30000 0.05000 0.15000
v 0.30000 0.05000 -0.15000
v 0.10000 0.10000 -0.15000
v 0.10000 0.05000 -0.15000
v -0.10000 0.05000 -0.15000
v -0.10000 0.10000 -0.15000
v -0.10000 0.10000 -0.10000
v -0.10000 0.05000 -0.10000
v -0.15000 0.05000 -0.10000
v -0.15000 0.10000 -0.10000
v 0.15000 0.10000 -0.10000
v 0.15000 0.05000 -0.10000
v 0.10000 0.05000 -0.10000
v 0.10000 0.10000 -0.10000
v -0.10000 0.10000 0.15000
v -0.10000 0.05000 0.15000
v 0.10000 0.05000 0.15000
v 0.10000 0.10000 0.15000
v -0.15000 0.10000 0.10000
v -0.15000 0.05000 0.10000
v -0.10000 0.05000 0.10000
v -0.10000 0.10000 0.10000
v 0.10000 0.10000 0.10000
v 0.10000 0.05000 0.10000
v 0.15000 0.05000 0.10000
v 0.15000 0.10000 0.10000

vt 0.01563 0.28125
vt 0.01563 0.03125
vt 0.20313 0.03125
vt 0.20313 0.28125
vt 0.23438 0.21875
vt 0.23438 0.03125
vt 0.35938 0.03125
vt 0.35938 0.21875
vt 0.39063 0.21875
vt 0.39063 0.03125
vt 0.40625 0.03125
vt 0.40625 0.21875
vt 0.43750 0.21875
vt 0.43750 0.03125
vt 0.45313 0.03125
vt 0.45313 0.21875
vt 0.48438 0.21875
vt 0.48438 0.03125
vt 0.50000 0.03125
vt 0.50000 0.21875
vt 0.53125 0.21875
vt 0.53125 0.03125
vt 0.54688 0.03125
vt 0.54688 0.21875
vt 0.82813 0.06250
vt 0.82813 0.03125
vt 0.98438 0.03125
vt 0.98438 0.06250
vt 0.82813 0.15625
vt 0.82813 0.12500
vt 0.98438 0.12500
vt 0.98438 0.15625
vt 0.01563 0.37500
vt 0.01563 0.34375
vt 0.14063 0.34375
vt 0.14063 0.37500
vt 0.17188 0.37500
vt 0.17188 0.34375
vt 0.29688 0.34375
vt 0.29688 0.37500
vt 0.32813 0.37500
vt 0.32813 0.34375
vt 0.45313 0.34375
vt 0.45313 0.37500
vt 0.48438 0.37500
vt 0.48438 0.34375
vt 0.60938 0.34375
vt 0.60938 0.37500
vt 0.64063 0.37500
vt 0.64063 0.34375
vt 0.76563 0.34375
vt 0.76563 0.37500
vt 0.79688 0.37500
vt 0.79688 0.34375
vt 0.92188 0.34375
vt 0.92188 0.37500
vt 0.01563 0.46875
vt 0.01563 0.43750
vt 0.14063 0.43750
vt 0.14063 0.46875
vt 0.17188 0.46875
vt 0.17188 0.43750
vt 0.29688 0.43750
vt 0.29688 0.46875
vt 0.32813 0.46875
vt 0.32813 0.43750
vt 0.42188 0.43750
vt 0.42188 0.46875
vt 0.45313 0.46875
vt 0.45313 0.43750
vt 0.54688 0.43750
vt 0.54688 0.46875
vt 0.57813 0.46875
vt 0.57813 0.43750
vt 0.67188 0.43750
vt 0.67188 0.46875
vt 0.70313 0.46875
vt 0.70313 0.43750
vt 0.79688 0.43750
vt 0.79688 0.46875
vt 0.82813 0.46875
vt 0.82813 0.43750
vt 0.92188 0.43750
vt 0.92188 0.46875
vt 0.01563 0.56250
vt 0.01563 0.53125
vt 0.10938 0.53125
vt 0.10938 0.56250
vt 0.14063 0.56250
vt 0.14063 0.53125
vt 0.23438 0.53125
vt 0.23438 0.56250
vt 0.26563 0.56250
vt 0.26563 0.53125
vt 0.35938 0.53125
vt 0.35938 0.56250
vt 0.39063 0.56250
vt 0.39063 0.53125
vt 0.48438 0.53125
vt 0.48438 0.56250
vt 0.51563 0.56250
vt 0.51563 0.53125
vt 0.60938 0.53125
vt 0.60938 0.56250
vt 0.64063 0.56250
vt 0.64063 0.53125
vt 0.73438 0.53125
vt 0.73438 0.56250
vt 0.76563 0.56250
vt 0.76563 0.53125
vt 0.85938 0.53125
vt 0.85938 0.56250
vt 0.95313 0.37500
vt 0.95313 0.34375
vt 0.98438 0.34375
vt 0.98438 0.37500
vt 0.95313 0.46875
vt 0.95313 0.43750
vt 0.98438 0.43750
vt 0.98438 0.46875
vt 0.67188 0.65625
vt 0.67188 0.62500
vt 0.70313 0.62500
vt 0.70313 0.65625
vt 0.73438 0.65625
vt 0.73438 0.62500
vt 0.76563 0.62500
vt 0.76563 0.65625
vt 0.79688 0.65625
vt 0.79688 0.62500
vt 0.82813 0.62500
vt 0.82813 0.65625
vt 0.85938 0.65625
vt 0.85938 0.62500
vt 0.89063 0.62500
vt 0.89063 0.65625
vt 0.92188 0.65625
vt 0.92188 0.62500
vt 0.95313 0.62500
vt 0.95313 0.65625
vt 0.01563 0.75000
vt 0.01563 0.71875
vt 0.04688 0.71875
vt 0.04688 0.75000
vt 0.07813 0.75000
vt 0.07813 0.71875
vt 0.09375 0.71875
vt 0.09375 0.75000
vt 0.12500 0.75000
vt 0.12500 0.71875
vt 0.14063 0.71875
vt 0.14063 0.75000
vt 0.17188 0.75000
vt 0.17188 0.71875
vt 0.18750 0.71875
vt 0.18750 0.75000
vt 0.21875 0.75000
vt 0.21875 0.71875
vt 0.23438 0.71875
vt 0.23438 0.75000
vt 0.26563 0.75000
vt 0.26563 0.71875
vt 0.28125 0.71875
vt 0.28125 0.75000
vt 0.31250 0.75000
vt 0.31250 0.71875
vt 0.32813 0.71875
vt 0.32813 0.75000
vt 0.35938 0.75000
vt 0.35938 0.71875
vt 0.37500 0.71875
vt 0.37500 0.75000
vt 0.40625 0.75000
vt 0.40625 0.71875
vt 0.42188 0.71875
vt 0.42188 0.75000
vt 0.45313 0.75000
vt 0.45313 0.71875
vt 0.46875 0.71875
vt 0.46875 0.75000
vt 0.50000 0.75000
vt 0.50000 0.71875
vt 0.51563 0.71875
vt 0.51563 0.75000
vt 0.54688 0.75000
vt 0.54688 0.71875
vt 0.56250 0.71875
vt 0.56250 0.75000
vt 0.59375 0.75000
vt 0.59375 0.71875
vt 0.60938 0.71875
vt 0.60938 0.75000
vt 0.64063 0.75000
vt 0.64063 0.71875
vt 0.65625 0.71875
vt 0.65625 0.75000
vt 0.68750 0.75000
vt 0.68750 0.71875
vt 0.70313 0.71875
vt 0.70313 0.75000
vt 0.73438 0.75000
vt 0.73438 0.71875
vt 0.75000 0.71875
vt 0.75000 0.75000
vt 0.78125 0.75000
vt 0.78125 0.71875
vt 0.79688 0.71875
vt 0.79688 0.75000
vt 0.82813 0.75000
vt 0.82813 0.71875
vt 0.84375 0.71875
vt 0.84375 0.75000
vt 0.87500 0.75000
vt 0.87500 0.71875
vt 0.89063 0.71875
vt 0.89063 0.75000
vt 0.92188 0.75000
vt 0.92188 0.71875
vt 0.93750 0.71875
vt 0.93750 0.75000
vt 0.96875 0.75000
vt 0.96875 0.71875
vt 0.98438 0.71875
vt 0.98438 0.75000
vt 0.01563 0.84375
vt 0.01563 0.81250
vt 0.03125 0.81250
vt 0.03125 0.84375
vt 0.06250 0.84375
vt 0.06250 0.81250
vt 0.07813 0.81250
vt 0.07813 0.84375
vt 0.10938 0.84375
vt 0.10938 0.81250
vt 0.12500 0.81250
vt 0.12500 0.84375
vt 0.15625 0.84375
vt 0.15625 0.81250
vt 0.17188 0.81250
vt 0.17188 0.84375
vt 0.20313 0.84375
vt 0.20313 0.81250
vt 0.21875 0.81250
vt 0.21875 0.84375
vt 0.25000 0.84375
vt 0.25000 0.81250
vt 0.26563 0.81250
vt 0.26563 0.84375
vt 0.29688 0.84375
vt 0.29688 0.81250
vt 0.31250 0.81250
vt 0.31250 0.84375
vt 0.34375 0.84375
vt 0.34375 0.81250
vt 0.35938 0.81250
vt 0.35938 0.84375
vt 0.39063 0.84375
vt 0.39063 0.81250
vt 0.40625 0.81250
vt 0.40625 0.84375
vt 0.81250 0.84375
vt 0.81250 0.81250
vt 0.82813 0.81250
vt 0.82813 0.84375
vt 0.85938 0.84375
vt 0.85938 0.81250
vt 0.87500 0.81250
vt 0.87500 0.84375
vt 0.90625 0.84375
vt 0.90625 0.81250
vt 0.92188 0.81250
vt 0.92188 0.84375
vt 0.95313 0.84375
vt 0.95313 0.81250
vt 0.96875 0.81250
vt 0.96875 0.84375
vt 0.01563 0.93750
vt 0.01563 0.90625
vt 0.03125 0.90625
vt 0.03125 0.93750
vt 0.06250 0.93750
vt 0.06250 0.90625
vt 0.07813 0.90625
vt 0.07813 0.93750
vt 0.10938 0.93750
vt 0.10938 0.90625
vt 0.12500 0.90625
vt 0.12500 0.93750
vt 0.15625 0.93750
vt 0.15625 0.90625
vt 0.17188 0.90625
vt 0.17188 0.93750
vt 0.20313 0.93750
vt 0.20313 0.90625
vt 0.21875 0.90625
vt 0.21875 0.93750
vt 0.25000 0.93750
vt 0.25000 0.90625
vt 0.26563 0.90625
vt 0.26563 0.93750
vt 0.29688 0.93750
vt 0.29688 0.90625
vt 0.31250 0.90625
vt 0.31250 0.93750
vt 0.34375 0.93750
vt 0.34375 0.90625
vt 0.35938 0.90625
vt 0.35938 0.93750
vt 0.39063 0.93750
vt 0.39063 0.90625
vt 0.40625 0.90625
vt 0.40625 0.93750
vt 0.43750 0.93750
vt 0.43750 0.90625
vt 0.45313 0.90625
vt 0.45313 0.93750
vt 0.48438 0.93750
vt 0.48438 0.90625
vt 0.50000 0.90625
vt 0.50000 0.93750
vt 0.03125 0.46875
vt 0.81250 0.37500
vt 0.25000 0.03125
vt 0.34375 0.21875
vt 0.34375 0.34375
vt 0.75000 0.37500
vt 0.87500 0.62500
vt 0.87500 0.65625
vt 0.81250 0.62500
vt 0.81250 0.65625
vt 0.03125 0.71875
vt 0.03125 0.75000
vt 0.93750 0.62500
vt 0.93750 0.65625
vt 0.96875 0.43750
vt 0.96875 0.46875
vt 0.96875 0.34375
vt 0.96875 0.37500
vt 0.75000 0.62500
vt 0.75000 0.65625
vt 0.68750 0.62500
vt 0.68750 0.65625
vt 0.03125 0.03125
vt 0.18750 0.03125
vt 0.03125 0.28125
vt 0.18750 0.28125
vt 0.84375 0.12500
vt 0.96875 0.06250
vt 0.57813 0.15625
vt 0.57813 0.03125
vt 0.67188 0.03125
vt 0.67188 0.15625
vt 0.70313 0.15625
vt 0.70313 0.03125
vt 0.79688 0.03125
vt 0.79688 0.15625
vt 0.89063 0.56250
vt 0.89063 0.53125
vt 0.95313 0.53125
vt 0.95313 0.56250
vt 0.01563 0.65625
vt 0.01563 0.62500
vt 0.07813 0.62500
vt 0.07813 0.65625
vt 0.10938 0.65625
vt 0.10938 0.62500
vt 0.17188 0.62500
vt 0.17188 0.65625
vt 0.20313 0.65625
vt 0.20313 0.62500
vt 0.26563 0.62500
vt 0.26563 0.65625
vt 0.29688 0.65625
vt 0.29688 0.62500
vt 0.35938 0.62500
vt 0.35938 0.65625
vt 0.39063 0.65625
vt 0.39063 0.62500
vt 0.45313 0.62500
vt 0.45313 0.65625
vt 0.48438 0.65625
vt 0.48438 0.62500
vt 0.54688 0.62500
vt 0.54688 0.65625
vt 0.57813 0.65625
vt 0.57813 0.62500
vt 0.64063 0.62500
vt 0.64063 0.65625
vt 0.43750 0.84375
vt 0.43750 0.81250
vt 0.45313 0.81250
vt 0.45313 0.84375
vt 0.48438 0.84375
vt 0.48438 0.81250
vt 0.50000 0.81250
vt 0.50000 0.84375
vt 0.53125 0.84375
vt 0.53125 0.81250
vt 0.54688 0.81250
vt 0.54688 0.84375
vt 0.57813 0.84375
vt 0.57813 0.81250
vt 0.59375 0.81250
vt 0.59375 0.84375
vt 0.62500 0.84375
vt 0.62500 0.81250
vt 0.64063 0.81250
vt 0.64063 0.84375
vt 0.67188 0.84375
vt 0.67188 0.81250
vt 0.68750 0.81250
vt 0.68750 0.84375
vt 0.71875 0.84375
vt 0.71875 0.81250
vt 0.73438 0.81250
vt 0.73438 0.84375
vt 0.76563 0.84375
vt 0.76563 0.81250
vt 0.78125 0.81250
vt 0.78125 0.84375
vt 0.71875 0.03125
vt 0.78125 0.15625
vt 0.59375 0.03125
vt 0.65625 0.15625

g ButtonFrame
usemtl Button_Material
f 2/62/2 4/64/2 1/61/2
f 2/62/2 3/63/2 4/64/2
f 6/82/2 8/84/2 5/81/2
f 6/82/2 7/83/2 8/84/2
f 10/70/2 12/72/2 9/69/2
f 10/70/2 11/71/2 12/72/2
f 14/166/2 16/168/2 13/165/2
f 14/166/2 15/167/2 16/168/2
f 18/174/2 20/176/2 17/173/2
f 18/174/2 19/175/2 20/176/2
f 22/182/2 24/184/2 21/181/2
f 22/182/2 23/183/2 24/184/2
f 26/162/2 28/164/2 25/161/2
f 26/162/2 27/163/2 28/164/2
f 30/158/2 32/160/2 29/157/2
f 30/158/2 31/159/2 32/160/2
f 34/186/2 36/188/2 33/185/2
f 34/186/2 35/187/2 36/188/2
f 38/190/2 40/192/2 37/189/2
f 38/190/2 39/191/2 40/192/2
f 42/198/2 44/200/2 41/197/2
f 42/198/2 43/199/2 44/200/2
f 46/206/2 48/208/2 45/205/2
f 46/206/2 47/207/2 48/208/2
f 50/202/2 52/204/2 49/201/2
f 50/202/2 51/203/2 52/204/2
f 26/66/1 32/68/1 25/65/1
f 26/66/1 31/67/1 32/68/1
f 54/74/1 56/76/1 53/73/1
f 54/74/1 55/75/1 56/76/1
f 58/46/1 60/48/1 57/45/1
f 58/46/1 59/47/1 60/48/1
f 38/194/1 62/196/1 37/193/1
f 38/194/1 61/195/1 62/196/1
f 64/222/1 44/224/1 63/221/1
f 64/222/1 43/223/1 44/224/1
f 66/226/1 48/228/1 65/225/1
f 66/226/1 47/227/1 48/228/1
f 50/218/1 68/220/1 49/217/1
f 50/218/1 67/219/1 68/220/1
f 70/210/1 72/212/1 69/209/1
f 70/210/1 71/211/1 72/212/1
f 74/214/1 12/216/1 73/213/1
f 74/214/1 11/215/1 12/216/1
f 10/154/1 76/156/1 9/153/1
f 10/154/1 75/155/1 76/156/1
f 78/146/1 80/148/1 77/145/1
f 78/146/1 79/147/1 80/148/1
f 82/150/1 84/152/1 81/149/1
f 82/150/1 83/151/1 84/152/1
f 86/178/1 88/180/1 85/177/1
f 86/178/1 87/179/1 88/180/1
f 89/321/3 24/57/3 23/58/3
f 23/58/3 69/60/3 89/321/3
f 69/60/3 23/58/3 70/59/3
f 39/102/3 65/104/3 40/101/3
f 39/102/3 66/103/3 65/104/3
f 43/110/3 49/112/3 44/109/3
f 43/110/3 50/111/3 49/112/3
f 3/170/3 13/172/3 4/169/3
f 3/170/3 14/171/3 13/172/3
f 15/230/3 21/232/3 16/229/3
f 15/230/3 22/231/3 21/232/3
f 7/278/3 25/280/3 8/277/3
f 7/278/3 26/279/3 25/280/3
f 27/282/3 37/284/3 28/281/3
f 27/282/3 38/283/3 37/284/3
f 31/286/3 63/288/3 32/285/3
f 31/286/3 64/287/3 63/288/3
f 47/274/3 73/276/3 48/273/3
f 47/274/3 74/275/3 73/276/3
f 51/262/3 9/264/3 52/261/3
f 51/262/3 10/263/3 9/264/3
f 71/266/3 81/268/3 72/265/3
f 71/266/3 82/267/3 81/268/3
f 11/270/3 53/272/3 12/269/3
f 11/270/3 54/271/3 53/272/3
f 83/290/3 57/292/3 84/289/3
f 83/290/3 58/291/3 57/292/3
f 91/322/4 80/53/4 79/54/4
f 79/54/4 33/56/4 91/322/4
f 33/56/4 79/54/4 34/55/4
f 47/98/4 37/100/4 48/97/4
f 47/98/4 38/99/4 37/100/4
f 67/106/4 41/108/4 68/105/4
f 67/106/4 42/107/4 41/108/4
f 19/310/4 1/312/4 20/309/4
f 19/310/4 2/311/4 1/312/4
f 31/314/4 5/316/4 32/313/4
f 31/314/4 6/315/4 5/316/4
f 35/318/4 17/320/4 36/317/4
f 35/318/4 18/319/4 17/320/4
f 61/306/4 25/308/4 62/305/4
f 61/306/4 26/307/4 25/308/4
f 43/294/4 29/296/4 44/293/4
f 43/294/4 30/295/4 29/296/4
f 11/298/4 45/300/4 12/297/4
f 11/298/4 46/299/4 45/300/4
f 75/302/4 49/304/4 76/301/4
f 75/302/4 50/303/4 49/304/4
f 55/250/4 9/252/4 56/249/4
f 55/250/4 10/251/4 9/252/4
f 87/254/4 77/256/4 88/253/4
f 87/254/4 78/255/4 77/256/4
f 59/258/4 85/260/4 60/257/4
f 59/258/4 86/259/4 85/260/4
f 64/324/5 38/5/5 47/6/5
f 47/6/5 46/323/5 64/324/5
f 43/8/5 64/324/5 46/323/5
f 46/323/5 50/7/5 43/8/5
f 89/13/5 90/14/5 39/16/5
f 90/14/5 66/15/5 39/16/5
f 40/9/5 65/10/5 37/12/5
f 65/10/5 48/11/5 37/12/5
f 44/17/5 49/18/5 41/20/5
f 49/18/5 68/19/5 41/20/5
f 42/21/5 67/22/5 92/24/5
f 67/22/5 91/23/5 92/24/5
f 1/44/5 4/41/5 13/42/5
f 13/42/5 7/325/5 1/44/5
f 20/43/5 1/44/5 7/325/5
f 8/77/5 25/78/5 5/80/5
f 25/78/5 32/79/5 5/80/5
f 26/85/5 61/86/5 31/88/5
f 61/86/5 64/87/5 31/88/5
f 46/93/5 11/94/5 51/96/5
f 11/94/5 10/95/5 51/96/5
f 12/89/5 53/90/5 9/92/5
f 53/90/5 56/91/5 9/92/5
f 55/326/5 84/49/5 57/50/5
f 57/50/5 60/51/5 55/326/5
f 85/52/5 55/326/5 60/51/5
f 13/328/5 16/133/5 21/134/5
f 21/134/5 27/327/5 13/328/5
f 7/136/5 13/328/5 27/327/5
f 27/327/5 26/135/5 7/136/5
f 20/330/5 6/129/5 31/130/5
f 31/130/5 30/329/5 20/330/5
f 17/132/5 20/330/5 30/329/5
f 30/329/5 36/131/5 17/132/5
f 21/332/5 24/141/5 89/142/5
f 89/142/5 39/331/5 21/332/5
f 27/144/5 21/332/5 39/331/5
f 39/331/5 38/143/5 27/144/5
f 36/334/5 30/137/5 43/138/5
f 43/138/5 42/333/5 36/334/5
f 33/140/5 36/334/5 42/333/5
f 42/333/5 92/139/5 33/140/5
f 66/336/5 90/117/5 69/118/5
f 69/118/5 72/335/5 66/336/5
f 47/120/5 66/336/5 72/335/5
f 72/335/5 74/119/5 47/120/5
f 67/338/5 50/113/5 75/114/5
f 75/114/5 77/337/5 67/338/5
f 91/116/5 67/338/5 77/337/5
f 77/337/5 80/115/5 91/116/5
f 74/340/5 72/125/5 81/126/5
f 81/126/5 84/339/5 74/340/5
f 11/128/5 74/340/5 84/339/5
f 84/339/5 54/127/5 11/128/5
f 75/342/5 10/121/5 55/122/5
f 55/122/5 85/341/5 75/342/5
f 77/124/5 75/342/5 85/341/5
f 85/341/5 88/123/5 77/124/5
f 28/245/5 37/246/5 25/248/5
f 37/246/5 62/247/5 25/248/5
f 32/233/5 63/234/5 29/236/5
f 63/234/5 44/235/5 29/236/5
f 48/237/5 73/238/5 45/240/5
f 73/238/5 12/239/5 45/240/5
f 52/241/5 9/242/5 49/244/5
f 9/242/5 76/243/5 49/244/5
f 71/345/6 70/1/6 23/2/6
f 23/2/6 22/343/6 71/345/6
f 78/346/6 71/345/6 22/343/6
f 22/343/6 35/344/6 78/346/6
f 79/4/6 78/346/6 35/344/6
f 35/344/6 34/3/6 79/4/6
f 35/32/6 22/29/6 15/30/6
f 15/30/6 14/347/6 35/32/6
f 18/31/6 35/32/6 14/347/6
f 86/348/6 82/25/6 71/26/6
f 71/26/6 78/27/6 86/348/6
f 87/28/6 86/348/6 78/27/6
f 14/37/6 3/38/6 19/40/6
f 3/38/6 2/39/6 19/40/6
f 58/33/6 83/34/6 59/36/6
f 83/34/6 86/35/6 59/36/6
g Button
usemtl Button_Material
f 94/374/2 96/376/2 93/373/2
f 94/374/2 95/375/2 96/376/2
f 98/390/2 100/392/2 97/389/2
f 98/390/2 99/391/2 100/392/2
f 102/410/2 104/412/2 101/409/2
f 102/410/2 103/411/2 104/412/2
f 106/370/1 108/372/1 105/369/1
f 106/370/1 107/371/1 108/372/1
f 110/414/1 112/416/1 109/413/1
f 110/414/1 111/415/1 112/416/1
f 114/418/1 116/420/1 113/417/1
f 114/418/1 115/419/1 116/420/1
f 99/366/3 109/368/3 100/365/3
f 99/366/3 110/367/3 109/368/3
f 95/406/3 97/408/3 96/405/3
f 95/406/3 98/407/3 97/408/3
f 111/394/3 105/396/3 112/393/3
f 111/394/3 106/395/3 105/396/3
f 115/386/4 101/388/4 116/385/4
f 115/386/4 102/387/4 101/388/4
f 103/398/4 93/400/4 104/397/4
f 103/398/4 94/399/4 93/400/4
f 107/402/4 113/404/4 108/401/4
f 107/402/4 114/403/4 113/404/4
f 104/422/5 100/353/5 109/354/5
f 109/354/5 112/421/5 104/422/5
f 101/356/5 104/422/5 112/421/5
f 112/421/5 116/355/5 101/356/5
f 96/381/5 97/382/5 93/384/5
f 97/382/5 104/383/5 93/384/5
f 112/377/5 105/378/5 113/380/5
f 105/378/5 108/379/5 113/380/5
f 114/424/6 110/349/6 99/350/6
f 99/350/6 98/423/6 114/424/6
f 115/352/6 114/424/6 98/423/6
f 98/423/6 102/351/6 115/352/6
f 98/357/6 95/358/6 103/360/6
f 95/358/6 94/359/6 103/360/6
f 106/361/6 111/362/6 107/364/6
f 111/362/6 114/363/6 107/364/6
